<?xml version="1.0" encoding="iso-8859-1"?>
<!-- Generator: Adobe Illustrator 18.1.1, SVG Export Plug-In . SVG Version: 6.00 Build 0)  -->
<svg version="1.1" id="Calque_1" xmlns="http://www.w3.org/2000/svg" xmlns:xlink="http://www.w3.org/1999/xlink" x="0px" y="0px"
	 viewBox="0 0 150 150" style="enable-background:new 0 0 150 150;" xml:space="preserve">
<g>
	<g>
		<linearGradient id="SVGID_1_" gradientUnits="userSpaceOnUse" x1="51.7513" y1="139.8753" x2="98.2488" y2="12.1246">
			<stop  offset="0" style="stop-color:#69BFAB"/>
			<stop  offset="1" style="stop-color:#374998"/>
		</linearGradient>
		<path style="fill:url(#SVGID_1_);" d="M75,143.971c-37.48,0-67.971-30.492-67.971-67.971S37.521,8.029,75,8.029
			c37.479,0,67.971,30.492,67.971,67.971S112.479,143.971,75,143.971z M75,10.75C39.021,10.75,9.749,40.021,9.749,76
			S39.021,141.25,75,141.25c35.979,0,65.25-29.271,65.25-65.25S110.979,10.75,75,10.75z"/>
	</g>
</g>
<g>
	<g>
		<linearGradient id="SVGID_2_" gradientUnits="userSpaceOnUse" x1="47.1616" y1="115.852" x2="78.0681" y2="30.937">
			<stop  offset="0" style="stop-color:#69BFAB"/>
			<stop  offset="1" style="stop-color:#374998"/>
		</linearGradient>
		<path style="fill:url(#SVGID_2_);" d="M58.14,89.821l-10.18,10.18c-0.351,0.351-0.527,0.811-0.527,1.271s0.176,0.92,0.527,1.271
			c0.351,0.351,0.811,0.527,1.271,0.527c0.46,0,0.92-0.176,1.271-0.527l10.18-10.18c0.351-0.351,0.527-0.811,0.527-1.271
			c0-0.46-0.176-0.92-0.527-1.271C59.981,89.118,58.841,89.118,58.14,89.821z"/>
	</g>
	<g>
		<linearGradient id="SVGID_3_" gradientUnits="userSpaceOnUse" x1="58.3589" y1="120.6868" x2="89.821" y2="34.2453">
			<stop  offset="0" style="stop-color:#69BFAB"/>
			<stop  offset="1" style="stop-color:#374998"/>
		</linearGradient>
		<path style="fill:url(#SVGID_3_);" d="M92.949,82.423l-8.798-8.798l15.146-15.146l3.929-1.309
			c0.286-0.095,0.546-0.256,0.759-0.469l5.817-5.818c0.759-0.759,0.759-1.988,0-2.746l-7.211-7.211
			c-0.758-0.758-1.987-0.759-2.746,0l-5.817,5.817c-0.213,0.213-0.374,0.473-0.469,0.759l-1.309,3.928L77.102,66.576L68.1,57.575
			c0.913-4.643-0.585-9.529-4.048-12.992c-4.369-4.369-11.063-5.543-16.657-2.92c-0.573,0.269-0.979,0.8-1.089,1.423
			c-0.109,0.623,0.092,1.261,0.54,1.709l8.497,8.497c0.887,0.887,0.887,2.33,0,3.216c-0.886,0.886-2.33,0.886-3.216,0l-8.498-8.497
			c-0.447-0.447-1.086-0.648-1.709-0.54c-0.623,0.11-1.154,0.516-1.423,1.089c-2.675,5.706-1.491,12.411,2.92,16.657
			c3.463,3.463,8.351,4.962,12.992,4.048l9.001,9.001l-1.164,1.164l-2.404-2.404c-0.364-0.364-0.858-0.569-1.373-0.569
			c-0.515,0-1.009,0.205-1.373,0.569l-2.909,2.909c-0.364,0.365-0.569,0.858-0.569,1.373c0,0.516,0.205,1.009,0.569,1.373
			c0.193,0.193,0.303,0.487,0.303,0.808c0,0.321-0.111,0.615-0.304,0.808c-0.386,0.386-1.23,0.386-1.616,0.001
			c-0.364-0.365-0.858-0.57-1.373-0.57h0c-0.515,0-1.009,0.205-1.373,0.569l-9.784,9.785c-3.965,3.964-3.965,10.416,0,14.38
			c1.914,1.914,4.468,2.968,7.19,2.968c2.723,0,5.276-1.054,7.19-2.968l9.784-9.784c0.758-0.759,0.759-1.988,0-2.746
			c-0.408-0.408-0.408-1.209-0.001-1.617c0.408-0.408,1.21-0.407,1.617,0c0.759,0.759,1.988,0.759,2.746,0l2.909-2.908
			c0.364-0.364,0.569-0.858,0.569-1.373c0-0.515-0.205-1.009-0.569-1.373l-2.181-2.181l1.164-1.164l8.8,8.799
			c-0.913,4.643,0.585,9.53,4.048,12.993c2.816,2.816,6.598,4.304,10.429,4.304c2.112,0,4.24-0.453,6.229-1.385
			c0.573-0.268,0.979-0.799,1.088-1.423c0.11-0.623-0.092-1.261-0.539-1.708l-8.497-8.497c-0.886-0.886-0.886-2.33,0-3.216
			c0.886-0.886,2.331-0.886,3.217,0l8.497,8.497c0.448,0.447,1.087,0.649,1.708,0.539c0.624-0.109,1.155-0.516,1.423-1.089
			c2.669-5.694,1.497-12.381-2.916-16.655C102.579,82.973,97.692,81.474,92.949,82.423z M58.388,65.751
			c-0.5-0.499-1.23-0.688-1.907-0.494c-3.557,1.016-7.609-0.077-10.343-2.811c-2.54-2.445-3.612-5.997-3.008-9.441l6.251,6.25
			c1.16,1.16,2.706,1.799,4.355,1.799c1.648,0,3.195-0.639,4.355-1.799c1.16-1.16,1.798-2.706,1.798-4.355
			c0-1.648-0.638-3.195-1.798-4.355l-6.239-6.239c3.395-0.563,6.946,0.513,9.455,3.022c2.709,2.709,3.802,6.759,2.785,10.317
			c-0.194,0.678-0.005,1.408,0.494,1.907l9.77,9.769l-6.198,6.198L58.388,65.751z M68.908,90.482
			c-1.817-0.718-4.006-0.356-5.45,1.087c-1.443,1.443-1.805,3.632-1.086,5.45l-8.698,8.697c-1.181,1.181-2.759,1.83-4.444,1.83
			c-1.685,0-3.263-0.65-4.444-1.83c-2.45-2.45-2.45-6.438,0-8.888l8.701-8.702c0.594,0.234,1.237,0.359,1.891,0.359
			c1.343,0,2.639-0.526,3.554-1.442c0.916-0.916,1.442-2.211,1.442-3.555c0-0.654-0.125-1.297-0.359-1.891l0.453-0.452l8.888,8.888
			L68.908,90.482z M66.993,82.177l2.468-2.468c0.025-0.022,0.053-0.039,0.077-0.063c0.024-0.024,0.04-0.052,0.062-0.076l8.806-8.806
			c0.025-0.022,0.053-0.039,0.077-0.062c0.024-0.024,0.04-0.052,0.062-0.076l16.774-16.774c0.214-0.213,0.374-0.473,0.469-0.759
			l1.309-3.928l4.12-4.12l4.464,4.464l-4.119,4.12l-3.929,1.309c-0.286,0.095-0.546,0.256-0.759,0.469L68.549,83.733L66.993,82.177z
			 M106.23,98.685l-6.25-6.25c-2.401-2.401-6.309-2.401-8.71,0c-1.16,1.16-1.798,2.706-1.798,4.354c0,1.649,0.638,3.195,1.798,4.355
			l6.239,6.239c-3.398,0.56-6.947-0.514-9.455-3.023c-2.709-2.709-3.802-6.759-2.786-10.317c0.194-0.678,0.005-1.408-0.494-1.907
			l-9.568-9.567l6.198-6.198l9.568,9.568c0.499,0.499,1.229,0.688,1.907,0.494c3.709-1.057,7.649-0.003,10.287,2.755
			c0.018,0.019,0.037,0.038,0.056,0.057C105.762,91.69,106.835,95.241,106.23,98.685z"/>
	</g>
</g>
</svg>
